<mxfile host="Electron" agent="Mozilla/5.0 (Windows NT 10.0; Win64; x64) AppleWebKit/537.36 (KHTML, like Gecko) draw.io/26.2.2 Chrome/134.0.6998.178 Electron/35.1.2 Safari/537.36" version="26.2.2">
  <diagram name="Page-1" id="5hKA_KPMvQSoJ9bQR1Yu">
    <mxGraphModel dx="535" dy="287" grid="1" gridSize="10" guides="1" tooltips="1" connect="1" arrows="1" fold="1" page="1" pageScale="1" pageWidth="850" pageHeight="1100" math="0" shadow="0">
      <root>
        <mxCell id="0" />
        <mxCell id="1" parent="0" />
        <mxCell id="qiI-htGY2wbjIKSwcGT3-1" value="" style="ellipse;whiteSpace=wrap;html=1;aspect=fixed;" vertex="1" parent="1">
          <mxGeometry x="40" y="40" width="100" height="100" as="geometry" />
        </mxCell>
        <mxCell id="qiI-htGY2wbjIKSwcGT3-4" value="" style="endArrow=classic;html=1;rounded=0;entryX=0.989;entryY=0.41;entryDx=0;entryDy=0;entryPerimeter=0;" edge="1" parent="1">
          <mxGeometry width="50" height="50" relative="1" as="geometry">
            <mxPoint x="140" y="93.6" as="sourcePoint" />
            <mxPoint x="140.12" y="86.4" as="targetPoint" />
          </mxGeometry>
        </mxCell>
        <mxCell id="qiI-htGY2wbjIKSwcGT3-6" value="360°&lt;div&gt;&lt;i&gt;or&lt;/i&gt;&lt;/div&gt;&lt;div&gt;2π radians&lt;/div&gt;&lt;div&gt;(~6.28 radians)&lt;/div&gt;" style="text;html=1;align=center;verticalAlign=middle;whiteSpace=wrap;rounded=0;" vertex="1" parent="1">
          <mxGeometry x="40" y="70" width="100" height="30" as="geometry" />
        </mxCell>
        <mxCell id="qiI-htGY2wbjIKSwcGT3-9" value="" style="group" vertex="1" connectable="0" parent="1">
          <mxGeometry x="190" y="49.83" width="80" height="80.00000000000001" as="geometry" />
        </mxCell>
        <mxCell id="qiI-htGY2wbjIKSwcGT3-7" value="" style="endArrow=classic;html=1;rounded=0;" edge="1" parent="qiI-htGY2wbjIKSwcGT3-9">
          <mxGeometry width="50" height="50" relative="1" as="geometry">
            <mxPoint y="80.00000000000001" as="sourcePoint" />
            <mxPoint x="80" y="80.00000000000001" as="targetPoint" />
          </mxGeometry>
        </mxCell>
        <mxCell id="qiI-htGY2wbjIKSwcGT3-8" value="" style="endArrow=classic;html=1;rounded=0;" edge="1" parent="qiI-htGY2wbjIKSwcGT3-9">
          <mxGeometry width="50" height="50" relative="1" as="geometry">
            <mxPoint y="80.00000000000001" as="sourcePoint" />
            <mxPoint as="targetPoint" />
          </mxGeometry>
        </mxCell>
        <mxCell id="qiI-htGY2wbjIKSwcGT3-10" value="" style="curved=1;endArrow=classic;html=1;rounded=0;" edge="1" parent="1">
          <mxGeometry width="50" height="50" relative="1" as="geometry">
            <mxPoint x="230" y="130" as="sourcePoint" />
            <mxPoint x="190" y="90" as="targetPoint" />
            <Array as="points">
              <mxPoint x="230" y="100" />
            </Array>
          </mxGeometry>
        </mxCell>
        <mxCell id="qiI-htGY2wbjIKSwcGT3-11" value="90°&lt;div&gt;&lt;i&gt;or&lt;/i&gt;&lt;/div&gt;&lt;div&gt;0.5π radians&lt;/div&gt;&lt;div&gt;(~1.57 radians)&lt;/div&gt;" style="text;html=1;align=center;verticalAlign=middle;whiteSpace=wrap;rounded=0;" vertex="1" parent="1">
          <mxGeometry x="220" y="60" width="100" height="30" as="geometry" />
        </mxCell>
      </root>
    </mxGraphModel>
  </diagram>
</mxfile>
